<?xml version="1.0" encoding="utf-8"?>
<!-- Generator: Adobe Illustrator 14.0.0, SVG Export Plug-In . SVG Version: 6.00 Build 43363)  -->
<!DOCTYPE svg PUBLIC "-//W3C//DTD SVG 1.1//EN" "http://www.w3.org/Graphics/SVG/1.1/DTD/svg11.dtd">
<svg version="1.1" id="Layer_1" xmlns="http://www.w3.org/2000/svg" xmlns:xlink="http://www.w3.org/1999/xlink" x="0px" y="0px"
	 width="449.021px" height="125px" viewBox="0 0 449.021 125" enable-background="new 0 0 449.021 125" xml:space="preserve">
<circle fill="#A7A9AC" stroke="#A7A9AC" stroke-width="8" cx="66.242" cy="48.376" r="9.999"/>
<line fill="none" stroke="#A7A9AC" stroke-width="8" stroke-linecap="round" x1="25.14" y1="7.274" x2="49.889" y2="32.023"/>
<line fill="none" stroke="#A7A9AC" stroke-width="7" stroke-linecap="round" x1="46.342" y1="11.407" x2="60.484" y2="25.549"/>
<line fill="none" stroke="#A7A9AC" stroke-width="7" stroke-linecap="round" x1="29.271" y1="28.478" x2="43.414" y2="42.62"/>
<g>
	<path fill="#00AEEF" d="M83.145,107.907c-2.021,0-3.38-1.334-3.38-3.32c0-0.479,0.112-0.972,0.341-1.508l12.166-31.046
		c-0.207,0.139-0.421,0.302-0.642,0.487l-20.4,17.1c-1.641,1.384-3.407,2.087-5.245,2.087h-16.2c-2.184,0-3.8-1.018-4.553-2.866
		l-6.96-17.1c-0.133-0.314-0.196-0.314-0.428-0.314c-0.171,0-0.353,0.24-0.539,0.712l-12.718,32.457
		c-0.815,2.129-2.48,3.311-4.683,3.311h-8.1c-2.021,0-3.38-1.334-3.38-3.32c0-0.387,0.064-0.802,0.196-1.267l0.026-0.093
		L21.17,71.271c-1.82-0.531-2.485-1.943-2.485-3.164c0-0.458,0.075-0.914,0.224-1.356c0.848-2.223,2.513-3.404,4.716-3.404h24.36
		c2.969,0,4.098,1.78,4.506,2.841l7.005,17.122c0.052,0.134,0.096,0.226,0.13,0.288c0.219-0.069,0.744-0.3,1.653-1.063
		l20.398-17.158c1.667-1.354,3.423-2.03,5.248-2.03h20.28c2.021,0,3.38,1.334,3.38,3.32c0,0.48-0.112,0.974-0.343,1.51
		l-14.316,36.421c-0.814,2.127-2.479,3.309-4.681,3.309H83.145z"/>
	<path fill="#A7A9AC" d="M107.205,65.347c0.919,0,1.38,0.441,1.38,1.32c0,0.201-0.06,0.441-0.18,0.72l-14.34,36.48
		c-0.521,1.36-1.46,2.04-2.82,2.04h-8.1c-0.921,0-1.38-0.439-1.38-1.32c0-0.2,0.06-0.44,0.18-0.72l12.72-32.46
		c0.12-0.279,0.18-0.56,0.18-0.84c0-0.76-0.34-1.14-1.02-1.14c-1.08,0-2.24,0.521-3.48,1.56l-20.4,17.1
		c-1.281,1.08-2.601,1.62-3.96,1.62h-16.2c-1.36,0-2.261-0.54-2.7-1.62l-6.96-17.1c-0.441-1.04-1.2-1.56-2.28-1.56
		c-1.08,0-1.88,0.66-2.4,1.98l-12.72,32.46c-0.521,1.36-1.461,2.04-2.82,2.04h-8.1c-0.92,0-1.38-0.439-1.38-1.32
		c0-0.2,0.041-0.44,0.12-0.72l12.72-32.46c0.12-0.24,0.18-0.48,0.18-0.72c0-0.68-0.46-1.1-1.38-1.26c-0.92-0.159-1.38-0.6-1.38-1.32
		c0-0.24,0.039-0.48,0.12-0.72c0.52-1.359,1.46-2.04,2.82-2.04h24.36c1.359,0,2.24,0.521,2.64,1.56l7.02,17.16
		c0.399,1.041,1.02,1.56,1.86,1.56c0.8,0,1.82-0.52,3.06-1.56l20.4-17.16c1.28-1.04,2.6-1.56,3.96-1.56H107.205 M107.205,61.347
		h-20.28c-2.295,0-4.476,0.826-6.482,2.455l-0.027,0.022l-0.026,0.022L60.529,80.552L54.34,65.423
		c-1.005-2.553-3.376-4.076-6.355-4.076h-24.36c-3.002,0-5.453,1.724-6.557,4.612l-0.03,0.078l-0.026,0.079
		c-0.217,0.647-0.327,1.318-0.327,1.992c0,1.695,0.725,3.139,1.97,4.102L6.821,102.407l-0.071,0.181l-0.053,0.186
		c-0.183,0.646-0.272,1.238-0.272,1.813c0,3.083,2.263,5.32,5.38,5.32h8.1c3,0,5.452-1.724,6.556-4.61l11.434-29.178l5.485,13.477
		c1.064,2.613,3.398,4.112,6.405,4.112h16.2c2.322,0,4.522-0.862,6.538-2.561L87.58,78.524l-9.341,23.837
		c-0.314,0.755-0.474,1.504-0.474,2.226c0,3.083,2.263,5.32,5.38,5.32h8.1c3,0,5.451-1.724,6.556-4.61l14.308-36.399
		c0.316-0.756,0.476-1.506,0.476-2.23C112.585,63.584,110.322,61.347,107.205,61.347L107.205,61.347z"/>
</g>
<g>
	<path fill="#00AEEF" d="M108.385,108.907c-2.602,0-3.957-1.294-4.636-2.38l-0.739-1.231c-0.618-1.06-1.144-2.798-0.206-5.181
		l3.177-8.154c0.665-1.689,1.852-3.144,3.53-4.328l1.583-1.173c1.677-1.219,3.425-1.833,5.21-1.833h24.36
		c2.632,0,3.957,1.315,4.605,2.419l0.708,1.176c0.645,1.025,1.222,2.796,0.186,5.22l-1.532,3.992
		c-0.82,2.136-2.484,3.312-4.686,3.312h-16.262c-2.018,0-3.374-1.314-3.379-3.271L119,100.824l19.325,0.003
		c2.022,0,3.381,1.334,3.381,3.32c0,0.871-0.281,2.163-1.62,3.373c-1.015,0.92-2.133,1.387-3.321,1.387H108.385z M122.844,92.707
		c-0.478,0-0.717,0.099-0.958,0.712l-0.462,1.185c0.918-1.183,2.253-1.817,3.881-1.817h4.08c0.078,0,0.166-0.032,0.253-0.078
		L122.844,92.707z"/>
	<path fill="#A7A9AC" d="M140.665,86.627c1.359,0,2.32,0.478,2.881,1.432l0.719,1.194c0.602,0.957,0.621,2.091,0.061,3.403
		l-1.561,4.061c-0.52,1.354-1.459,2.029-2.818,2.029h-16.262c-0.92,0-1.379-0.426-1.379-1.281c0-0.232,0.061-0.465,0.18-0.699
		c0.52-1.32,1.459-1.98,2.82-1.98h4.08c0.68,0,1.34-0.294,1.98-0.883c0.639-0.589,0.959-1.229,0.959-1.918
		c0-0.852-0.461-1.279-1.379-1.279h-8.102c-1.36,0-2.299,0.66-2.819,1.98l-3.181,8.16c-0.12,0.24-0.18,0.48-0.18,0.72
		c0,0.84,0.459,1.26,1.38,1.26h20.28c0.92,0,1.381,0.441,1.381,1.32c0,0.68-0.32,1.311-0.961,1.89
		c-0.641,0.581-1.301,0.87-1.98,0.87h-28.379c-1.36,0-2.34-0.48-2.94-1.44l-0.72-1.2c-0.56-0.96-0.58-2.1-0.06-3.42l3.18-8.16
		c0.52-1.32,1.46-2.46,2.82-3.42l1.62-1.2c1.32-0.96,2.66-1.44,4.02-1.44H140.665 M140.665,82.627h-24.36
		c-2.217,0-4.361,0.742-6.373,2.205l-1.613,1.195c-1.982,1.409-3.394,3.156-4.196,5.194l-3.185,8.173
		c-1.227,3.116-0.497,5.467,0.332,6.887l0.744,1.242l0.019,0.031l0.02,0.031c1.338,2.142,3.587,3.32,6.332,3.32h28.379
		c1.169,0,2.928-0.33,4.667-1.906c1.879-1.699,2.274-3.578,2.274-4.854c0-0.803-0.153-1.548-0.436-2.211
		c1.44-0.774,2.572-2.075,3.229-3.785l1.537-3.999c1.031-2.472,0.904-4.948-0.36-6.988l-0.702-1.167
		C145.704,83.836,143.456,82.627,140.665,82.627L140.665,82.627z"/>
</g>
<g>
	<path fill="#00AEEF" d="M156.084,108.907c-2.603,0-3.957-1.295-4.636-2.381l-0.739-1.229c-0.619-1.061-1.146-2.801-0.204-5.185
		l2.927-7.511c-1.522-0.355-2.467-1.558-2.467-3.214c0-0.456,0.074-0.911,0.222-1.353c0.849-2.226,2.514-3.407,4.718-3.407
		c0.413,0,0.684-0.051,0.952-0.753l3.187-8.118c0.812-2.128,2.478-3.309,4.682-3.309h8.1c2.022,0,3.381,1.334,3.381,3.32
		c0,0.452-0.075,0.907-0.224,1.353l-2.943,7.506l3.146,0.001c2.022,0,3.381,1.334,3.381,3.32c0,0.871-0.281,2.163-1.619,3.373
		c-1.012,0.919-2.13,1.387-3.32,1.387h-4.08c-0.479,0-0.718,0.099-0.959,0.712l-2.928,7.514c1.522,0.356,2.467,1.559,2.467,3.214
		c0,0.871-0.281,2.163-1.62,3.373c-1.015,0.92-2.133,1.387-3.321,1.387H156.084z"/>
	<path fill="#A7A9AC" d="M172.825,74.447c0.92,0,1.381,0.44,1.381,1.32c0,0.24-0.041,0.48-0.121,0.72l-3.18,8.1
		c-0.119,0.28-0.18,0.52-0.18,0.72c0,0.88,0.459,1.32,1.379,1.32h4.08c0.92,0,1.381,0.44,1.381,1.32c0,0.681-0.32,1.311-0.961,1.89
		c-0.639,0.58-1.299,0.87-1.979,0.87h-4.08c-1.361,0-2.301,0.66-2.82,1.98l-3.18,8.16c-0.121,0.24-0.18,0.48-0.18,0.72
		c0,0.84,0.459,1.26,1.379,1.26s1.381,0.441,1.381,1.32c0,0.68-0.32,1.311-0.961,1.89c-0.641,0.581-1.301,0.87-1.98,0.87h-8.1
		c-1.359,0-2.34-0.48-2.939-1.44l-0.721-1.2c-0.561-0.96-0.58-2.1-0.059-3.42l3.18-8.16c0.119-0.24,0.18-0.48,0.18-0.72
		c0-0.84-0.461-1.26-1.381-1.26s-1.379-0.439-1.379-1.32c0-0.24,0.039-0.48,0.119-0.72c0.52-1.359,1.461-2.04,2.82-2.04
		s2.301-0.68,2.82-2.04l3.18-8.1c0.52-1.359,1.459-2.04,2.82-2.04H172.825 M172.825,70.447h-8.1c-3.002,0-5.453,1.724-6.557,4.612
		l-2.984,7.602c-2.671,0.254-4.822,1.925-5.836,4.578l-0.031,0.081l-0.027,0.082c-0.215,0.646-0.324,1.314-0.324,1.985
		c0,1.755,0.734,3.237,1.941,4.187l-2.268,5.821c-1.23,3.113-0.5,5.466,0.331,6.889l0.745,1.242l0.019,0.03l0.019,0.03
		c1.338,2.141,3.586,3.32,6.332,3.32h8.1c1.169,0,2.928-0.33,4.667-1.906c1.879-1.699,2.274-3.578,2.274-4.854
		c0-1.755-0.734-3.237-1.941-4.187l2.047-5.253h3.395c1.171,0,2.931-0.331,4.668-1.909c1.876-1.698,2.271-3.576,2.271-4.851
		c0-3.083-2.263-5.32-5.381-5.32h-0.213l1.837-4.679l0.038-0.097l0.033-0.099c0.217-0.65,0.326-1.318,0.326-1.985
		C178.206,72.684,175.943,70.447,172.825,70.447L172.825,70.447z"/>
</g>
<g>
	<path fill="#00AEEF" d="M185.383,108.907c-2.603,0-3.957-1.295-4.636-2.381l-0.739-1.229c-0.618-1.063-1.143-2.801-0.205-5.182
		l3.178-8.154c0.665-1.69,1.853-3.145,3.531-4.328l1.581-1.172c1.678-1.22,3.426-1.833,5.21-1.833h24.361
		c2.63,0,3.955,1.315,4.604,2.419l0.708,1.174c0.646,1.029,1.22,2.798,0.188,5.22l-1.533,3.995
		c-0.823,2.136-2.487,3.312-4.688,3.312h-16.26c-2.018,0-3.375-1.313-3.381-3.269L196,100.824l19.325,0.003
		c2.021,0,3.379,1.334,3.379,3.32c0,0.87-0.28,2.16-1.615,3.371c-1.018,0.922-2.136,1.389-3.324,1.389H185.383z M199.844,92.707
		c-0.479,0-0.718,0.099-0.959,0.712l-0.462,1.185c0.916-1.183,2.251-1.817,3.88-1.817h4.08c0.078,0,0.166-0.031,0.253-0.078
		L199.844,92.707z"/>
	<path fill="#A7A9AC" d="M217.665,86.627c1.359,0,2.318,0.478,2.879,1.432l0.721,1.194c0.6,0.957,0.619,2.091,0.061,3.403
		l-1.561,4.061c-0.521,1.354-1.461,2.029-2.82,2.029h-16.26c-0.92,0-1.381-0.426-1.381-1.281c0-0.232,0.061-0.465,0.182-0.699
		c0.518-1.32,1.459-1.98,2.818-1.98h4.08c0.68,0,1.34-0.294,1.98-0.883c0.639-0.589,0.961-1.229,0.961-1.918
		c0-0.852-0.461-1.279-1.381-1.279h-8.1c-1.361,0-2.301,0.66-2.82,1.98l-3.18,8.16c-0.121,0.24-0.18,0.48-0.18,0.72
		c0,0.84,0.459,1.26,1.379,1.26h20.281c0.918,0,1.379,0.441,1.379,1.32c0,0.68-0.32,1.311-0.959,1.89
		c-0.641,0.581-1.301,0.87-1.98,0.87h-28.381c-1.359,0-2.34-0.48-2.939-1.44l-0.721-1.2c-0.559-0.96-0.578-2.1-0.059-3.42l3.18-8.16
		c0.52-1.32,1.459-2.46,2.82-3.42l1.619-1.2c1.32-0.96,2.66-1.44,4.02-1.44H217.665 M217.665,82.627h-24.361
		c-2.216,0-4.359,0.742-6.372,2.205l-1.613,1.195c-1.981,1.408-3.393,3.155-4.195,5.194l-3.185,8.173
		c-1.226,3.113-0.499,5.463,0.328,6.883l0.014,0.024l0.014,0.023l0.721,1.2l0.019,0.03l0.019,0.03
		c1.338,2.141,3.586,3.32,6.332,3.32h28.381c1.169,0,2.928-0.33,4.667-1.906c1.878-1.703,2.272-3.58,2.272-4.854
		c0-0.803-0.153-1.548-0.436-2.211c1.438-0.773,2.57-2.072,3.229-3.78l1.54-4.006c1.028-2.471,0.9-4.947-0.361-6.986l-0.707-1.171
		C222.702,83.836,220.455,82.627,217.665,82.627L217.665,82.627z"/>
</g>
<g>
	<path fill="#00AEEF" d="M231.264,108.907c-2.603,0-3.957-1.295-4.636-2.381l-0.739-1.229c-0.619-1.06-1.145-2.799-0.207-5.182
		l3.178-8.154c0.664-1.688,1.852-3.142,3.53-4.328l1.585-1.173c1.677-1.219,3.425-1.833,5.209-1.833h24.359
		c2.635,0,3.96,1.322,4.608,2.432l0.707,1.18c0.643,1.025,1.218,2.799,0.186,5.229l-3.157,8.104c-0.661,1.68-1.82,3.128-3.447,4.312
		l-1.692,1.21c-1.65,1.199-3.398,1.812-5.185,1.812H231.264z M249.084,100.887c0.315,0,0.641,0,0.971-0.802l2.874-7.376l-7.2-0.002
		c-0.477,0-0.715,0.099-0.957,0.714l-2.908,7.463L249.084,100.887z"/>
	<path fill="#A7A9AC" d="M263.543,86.627c1.359,0,2.32,0.48,2.881,1.44l0.719,1.2c0.602,0.96,0.621,2.1,0.061,3.42l-3.18,8.16
		c-0.52,1.32-1.439,2.46-2.76,3.42l-1.68,1.2c-1.32,0.959-2.662,1.44-4.021,1.44h-24.299c-1.361,0-2.34-0.48-2.939-1.44l-0.721-1.2
		c-0.561-0.96-0.58-2.1-0.061-3.42l3.18-8.16c0.52-1.32,1.461-2.46,2.82-3.42l1.621-1.2c1.32-0.96,2.658-1.44,4.02-1.44H263.543
		 M240.924,102.887h8.16c1.32,0,2.26-0.68,2.82-2.04l3.18-8.16c0.08-0.24,0.119-0.48,0.119-0.72c0-0.84-0.461-1.26-1.379-1.26
		h-8.096c-1.359,0-2.299,0.661-2.818,1.983l-3.18,8.16c-0.125,0.248-0.188,0.494-0.188,0.741
		C239.543,102.455,240.002,102.887,240.924,102.887 M263.543,82.627h-24.359c-2.216,0-4.359,0.742-6.372,2.205l-1.615,1.196
		c-1.982,1.409-3.394,3.157-4.195,5.194l-3.185,8.173c-1.228,3.117-0.497,5.468,0.333,6.889l0.745,1.242l0.019,0.03l0.019,0.03
		c1.338,2.141,3.586,3.32,6.332,3.32h24.299c2.217,0,4.361-0.742,6.374-2.205l1.652-1.181c1.967-1.429,3.356-3.176,4.156-5.209
		l3.166-8.125c1.033-2.478,0.908-4.961-0.354-7.004l-0.702-1.172C268.589,83.843,266.339,82.627,263.543,82.627L263.543,82.627z
		 M246.417,94.707h3.587l-1.629,4.18h-3.587L246.417,94.707L246.417,94.707z"/>
</g>
<g>
	<path fill="#00AEEF" d="M275.063,108.907c-2.021,0-3.379-1.334-3.379-3.32c0-0.393,0.064-0.808,0.196-1.27l0.026-0.094
		l4.602-11.674c-1.818-0.53-2.484-1.942-2.484-3.163c0-0.456,0.074-0.911,0.222-1.353c0.849-2.226,2.514-3.407,4.718-3.407h12.18
		c1.916,0,3.236,1.198,3.37,3.014l1.158-0.981c1.611-1.351,3.356-2.033,5.192-2.033h2.461c2.021,0,3.379,1.334,3.379,3.32
		c0,0.879-0.29,2.181-1.671,3.393c-1.031,0.907-2.152,1.367-3.329,1.367h-1.619c-0.884,0-1.739,0.357-2.614,1.092l-5.884,4.922
		c-1.006,0.849-1.719,1.806-2.114,2.84l-1.632,4.053c-0.81,2.112-2.475,3.293-4.676,3.293H275.063z"/>
	<path fill="#A7A9AC" d="M303.325,86.627c0.918,0,1.379,0.44,1.379,1.32c0,0.681-0.33,1.311-0.99,1.89
		c-0.66,0.58-1.33,0.87-2.01,0.87h-1.619c-1.361,0-2.662,0.521-3.9,1.56l-5.881,4.92c-1.279,1.08-2.18,2.301-2.699,3.66l-1.619,4.02
		c-0.521,1.36-1.461,2.04-2.82,2.04h-8.102c-0.92,0-1.379-0.439-1.379-1.32c0-0.2,0.039-0.44,0.119-0.72l4.801-12.18
		c0.119-0.24,0.18-0.48,0.18-0.72c0-0.68-0.461-1.1-1.379-1.26c-0.922-0.159-1.381-0.6-1.381-1.32c0-0.24,0.039-0.48,0.119-0.72
		c0.52-1.359,1.461-2.04,2.82-2.04h12.18c0.92,0,1.381,0.44,1.381,1.32c0,0.201-0.061,0.44-0.18,0.72l-1.141,3.06
		c-0.119,0.24-0.18,0.441-0.18,0.6c0,0.24,0.08,0.36,0.24,0.36c0.24,0,0.58-0.18,1.02-0.54l4.68-3.96c1.24-1.04,2.541-1.56,3.9-1.56
		H303.325 M303.325,82.627h-2.461c-1.975,0-3.846,0.608-5.576,1.81c-0.964-1.128-2.424-1.81-4.145-1.81h-12.18
		c-3.002,0-5.453,1.724-6.557,4.611l-0.031,0.081l-0.027,0.082c-0.215,0.646-0.324,1.314-0.324,1.985
		c0,1.693,0.724,3.136,1.966,4.099l-3.908,9.915l-0.071,0.181l-0.053,0.187c-0.185,0.643-0.273,1.238-0.273,1.819
		c0,3.083,2.262,5.32,5.379,5.32h8.102c2.986,0,5.429-1.709,6.541-4.572l1.608-3.993l0.014-0.033l0.013-0.033
		c0.276-0.724,0.781-1.389,1.543-2.032l5.867-4.908c0.748-0.628,1.189-0.628,1.334-0.628h1.619c1.153,0,2.896-0.324,4.65-1.865
		c1.941-1.705,2.35-3.603,2.35-4.895C308.704,84.864,306.442,82.627,303.325,82.627L303.325,82.627z"/>
</g>
<g>
	<path fill="#00AEEF" d="M314.182,120.907c-2.021,0-3.379-1.334-3.379-3.32c0-0.869,0.28-2.16,1.615-3.371
		c1.018-0.922,2.136-1.389,3.324-1.389h1.621c0.882,0,1.736-0.357,2.613-1.093l3.632-3.007h-0.606c-2.93,0-4.104-1.744-4.542-2.783
		l-6.947-17.067c-0.192-0.413-0.29-0.846-0.29-1.29c0-1.563,1.082-3.14,3.5-3.14h8.1c2.184,0,3.8,1.018,4.552,2.866l5.282,13.022
		c0.063,0.156,0.12,0.264,0.164,0.335c0.241-0.078,0.768-0.324,1.649-1.091l15.632-13.047c1.574-1.374,3.328-2.084,5.182-2.084h8.1
		c1.993,0,2.9,1.317,2.9,2.54c0,1.206-0.85,2.065-1.489,2.606l-34.865,29.285c-1.667,1.354-3.424,2.028-5.247,2.028H314.182z"/>
	<path fill="#A7A9AC" d="M363.383,86.447c0.6,0,0.9,0.18,0.9,0.54c0,0.28-0.262,0.64-0.781,1.08l-34.859,29.279
		c-1.281,1.04-2.602,1.561-3.961,1.561h-10.5c-0.92,0-1.379-0.44-1.379-1.32c0-0.68,0.32-1.311,0.959-1.89
		c0.641-0.581,1.301-0.87,1.98-0.87h1.621c1.359,0,2.658-0.52,3.898-1.561l5.941-4.92c0.479-0.439,0.719-0.801,0.719-1.08
		c0-0.359-0.299-0.539-0.9-0.539h-4.02c-1.359,0-2.26-0.52-2.699-1.561l-6.961-17.1c-0.08-0.16-0.119-0.32-0.119-0.48
		c0-0.76,0.5-1.14,1.5-1.14h8.1c1.359,0,2.26,0.54,2.699,1.62l5.281,13.02c0.439,1.08,1.059,1.62,1.859,1.62
		c0.84,0,1.881-0.54,3.121-1.62l15.6-13.02c1.238-1.08,2.539-1.62,3.9-1.62H363.383 M363.383,82.447h-8.1
		c-2.337,0-4.521,0.866-6.494,2.575l-15.081,12.587l-4.479-11.045c-1.065-2.618-3.399-4.117-6.406-4.117h-8.1
		c-3.61,0-5.5,2.586-5.5,5.14c0,0.721,0.152,1.421,0.454,2.085l6.921,17.002l0.01,0.023l0.01,0.024
		c0.559,1.323,1.456,2.353,2.608,3.037l-0.515,0.427c-0.765,0.641-1.203,0.641-1.348,0.641h-1.621c-1.169,0-2.928,0.33-4.667,1.906
		c-1.878,1.703-2.272,3.58-2.272,4.854c0,3.083,2.262,5.32,5.379,5.32h10.5c2.294,0,4.475-0.825,6.481-2.454l0.026-0.021
		l0.025-0.021l34.859-29.28c0.556-0.47,2.209-1.87,2.209-4.143C368.284,84.73,366.6,82.447,363.383,82.447L363.383,82.447z"/>
</g>
<g>
	<path fill="#00AEEF" d="M375.502,108.907c-2.603,0-3.957-1.295-4.636-2.381l-0.739-1.229c-0.619-1.061-1.146-2.801-0.204-5.185
		l2.927-7.511c-1.522-0.355-2.467-1.558-2.467-3.214c0-0.456,0.074-0.911,0.222-1.353c0.849-2.226,2.514-3.407,4.718-3.407
		c0.413,0,0.684-0.051,0.952-0.753l3.187-8.118c0.812-2.128,2.478-3.309,4.682-3.309h8.1c2.022,0,3.381,1.334,3.381,3.32
		c0,0.452-0.075,0.907-0.224,1.353l-2.943,7.506l3.146,0.001c2.022,0,3.381,1.334,3.381,3.32c0,0.871-0.281,2.163-1.619,3.373
		c-1.012,0.919-2.13,1.387-3.32,1.387h-4.08c-0.479,0-0.718,0.099-0.959,0.712l-2.928,7.514c1.522,0.356,2.467,1.559,2.467,3.214
		c0,0.871-0.281,2.163-1.62,3.373c-1.015,0.92-2.133,1.387-3.321,1.387H375.502z"/>
	<path fill="#A7A9AC" d="M392.243,74.447c0.92,0,1.381,0.44,1.381,1.32c0,0.24-0.041,0.48-0.121,0.72l-3.18,8.1
		c-0.119,0.28-0.18,0.52-0.18,0.72c0,0.88,0.459,1.32,1.379,1.32h4.08c0.92,0,1.381,0.44,1.381,1.32c0,0.681-0.32,1.311-0.961,1.89
		c-0.639,0.58-1.299,0.87-1.979,0.87h-4.08c-1.361,0-2.301,0.66-2.82,1.98l-3.18,8.16c-0.121,0.24-0.18,0.48-0.18,0.72
		c0,0.84,0.459,1.26,1.379,1.26s1.381,0.441,1.381,1.32c0,0.68-0.32,1.311-0.961,1.89c-0.641,0.581-1.301,0.87-1.98,0.87h-8.1
		c-1.359,0-2.34-0.48-2.939-1.44l-0.721-1.2c-0.561-0.96-0.58-2.1-0.059-3.42l3.18-8.16c0.119-0.24,0.18-0.48,0.18-0.72
		c0-0.84-0.461-1.26-1.381-1.26s-1.379-0.439-1.379-1.32c0-0.24,0.039-0.48,0.119-0.72c0.52-1.359,1.461-2.04,2.82-2.04
		s2.301-0.68,2.82-2.04l3.18-8.1c0.52-1.359,1.459-2.04,2.82-2.04H392.243 M392.243,70.447h-8.1c-3.002,0-5.453,1.724-6.557,4.612
		l-2.984,7.602c-2.671,0.254-4.822,1.925-5.836,4.578l-0.031,0.081l-0.027,0.082c-0.215,0.646-0.324,1.314-0.324,1.985
		c0,1.755,0.734,3.237,1.941,4.187l-2.268,5.821c-1.23,3.113-0.5,5.466,0.331,6.889l0.745,1.242l0.019,0.03l0.019,0.03
		c1.338,2.141,3.586,3.32,6.332,3.32h8.1c1.169,0,2.928-0.33,4.667-1.906c1.879-1.699,2.274-3.578,2.274-4.854
		c0-1.755-0.734-3.237-1.941-4.187l2.047-5.253h3.395c1.171,0,2.931-0.331,4.668-1.909c1.876-1.698,2.271-3.576,2.271-4.851
		c0-3.083-2.263-5.32-5.381-5.32h-0.213l1.837-4.679l0.038-0.097l0.033-0.099c0.217-0.65,0.326-1.318,0.326-1.985
		C397.624,72.684,395.361,70.447,392.243,70.447L392.243,70.447z"/>
</g>
<g>
	<path fill="#00AEEF" d="M404.803,108.907c-2.603,0-3.957-1.295-4.636-2.381l-0.739-1.229c-0.619-1.06-1.145-2.799-0.207-5.182
		l3.178-8.154c0.664-1.688,1.852-3.142,3.53-4.328l1.585-1.173c1.674-1.219,3.422-1.833,5.209-1.833h24.359
		c2.632,0,3.957,1.315,4.605,2.419l0.708,1.176c0.645,1.025,1.222,2.796,0.186,5.22l-1.532,3.992
		c-0.82,2.136-2.484,3.312-4.686,3.312h-16.262c-2.018,0-3.374-1.314-3.379-3.271l-1.306,3.348l19.325,0.003
		c2.022,0,3.381,1.334,3.381,3.32c0,0.871-0.281,2.163-1.62,3.373c-1.015,0.92-2.133,1.387-3.321,1.387H404.803z M419.262,92.707
		c-0.479,0-0.717,0.099-0.956,0.71l-0.463,1.187c0.917-1.182,2.252-1.816,3.88-1.816h4.08c0.078,0,0.166-0.032,0.253-0.078
		L419.262,92.707z"/>
	<path fill="#A7A9AC" d="M437.083,86.627c1.359,0,2.32,0.478,2.881,1.432l0.719,1.194c0.602,0.957,0.621,2.091,0.061,3.403
		l-1.561,4.061c-0.52,1.354-1.459,2.029-2.818,2.029h-16.262c-0.92,0-1.379-0.426-1.379-1.281c0-0.232,0.061-0.465,0.18-0.699
		c0.52-1.32,1.459-1.98,2.82-1.98h4.08c0.68,0,1.34-0.294,1.98-0.883c0.639-0.589,0.959-1.229,0.959-1.918
		c0-0.852-0.461-1.279-1.379-1.279h-8.102c-1.359,0-2.301,0.66-2.818,1.98l-3.182,8.16c-0.119,0.24-0.18,0.48-0.18,0.72
		c0,0.84,0.459,1.26,1.381,1.26h20.279c0.92,0,1.381,0.441,1.381,1.32c0,0.68-0.32,1.311-0.961,1.89
		c-0.641,0.581-1.301,0.87-1.98,0.87h-28.379c-1.361,0-2.34-0.48-2.939-1.44l-0.721-1.2c-0.561-0.96-0.58-2.1-0.061-3.42l3.18-8.16
		c0.52-1.32,1.461-2.46,2.82-3.42l1.621-1.2c1.318-0.96,2.658-1.44,4.02-1.44H437.083 M437.083,82.627h-24.359
		c-2.219,0-4.363,0.742-6.374,2.207l-1.613,1.194c-1.982,1.409-3.394,3.157-4.195,5.194l-3.185,8.173
		c-1.228,3.117-0.497,5.468,0.333,6.889l0.745,1.242l0.019,0.03l0.019,0.03c1.338,2.141,3.586,3.32,6.332,3.32h28.379
		c1.169,0,2.928-0.33,4.667-1.906c1.879-1.699,2.274-3.578,2.274-4.854c0-0.803-0.153-1.548-0.436-2.211
		c1.44-0.774,2.572-2.075,3.229-3.785l1.537-3.999c1.031-2.472,0.904-4.948-0.36-6.988l-0.702-1.167
		C442.122,83.836,439.874,82.627,437.083,82.627L437.083,82.627z"/>
</g>
</svg>
