<?xml version="1.0" encoding="utf-8"?>
<!-- Generator: Adobe Illustrator 14.0.0, SVG Export Plug-In . SVG Version: 6.00 Build 43363)  -->
<!DOCTYPE svg PUBLIC "-//W3C//DTD SVG 1.1//EN" "http://www.w3.org/Graphics/SVG/1.1/DTD/svg11.dtd">
<svg version="1.1" id="Layer_1" xmlns="http://www.w3.org/2000/svg" xmlns:xlink="http://www.w3.org/1999/xlink" x="0px" y="0px"
	 width="125px" height="125px" viewBox="0 0 125 125" enable-background="new 0 0 125 125" xml:space="preserve">
<circle fill="#A7A9AC" stroke="#A7A9AC" stroke-width="9" cx="69.352" cy="48.376" r="9.999"/>
<line fill="none" stroke="#A7A9AC" stroke-width="9" stroke-linecap="round" x1="28.25" y1="7.274" x2="52.998" y2="32.023"/>
<line fill="none" stroke="#A7A9AC" stroke-width="6" stroke-linecap="round" x1="50.452" y1="12.407" x2="64.594" y2="26.549"/>
<line fill="none" stroke="#A7A9AC" stroke-width="6" stroke-linecap="round" x1="33.381" y1="29.478" x2="47.523" y2="43.62"/>
<g>
	<g>
		<path fill="#00AEEF" d="M86.553,118.772c-2.335,0-3.904-1.655-3.904-4.12c0-0.537,0.107-1.1,0.327-1.72L95.04,75.803L74.9,96.163
			c-1.779,1.81-3.735,2.729-5.807,2.729H52.61c-2.46,0-4.325-1.344-5.116-3.688L40.49,74.449c-0.03,0.077-0.062,0.165-0.093,0.262
			l-12.942,39.83c-0.851,2.683-2.766,4.23-5.247,4.23h-8.241c-2.335,0-3.904-1.655-3.904-4.12c0-0.441,0.062-0.918,0.189-1.456
			l0.023-0.101l12.798-39.389c-1.617-0.646-2.571-2.044-2.571-3.819c0-0.522,0.072-1.045,0.214-1.554
			C21.595,65.548,23.51,64,25.993,64h24.786c2.479,0,4.326,1.332,5.068,3.653l7.083,20.879c0.231-0.179,0.532-0.439,0.906-0.818
			L84.59,66.66c1.81-1.775,3.755-2.66,5.81-2.66h20.634c2.335,0,3.904,1.656,3.904,4.12c0,0.54-0.107,1.103-0.328,1.723
			l-14.569,44.701c-0.85,2.681-2.764,4.229-5.246,4.229H86.553z"/>
		<path fill="#00AEEF" d="M111.034,66.5c0.936,0,1.404,0.541,1.404,1.62c0,0.247-0.061,0.541-0.183,0.884l-14.591,44.766
			c-0.529,1.669-1.486,2.503-2.869,2.503h-8.242c-0.937,0-1.404-0.54-1.404-1.62c0-0.244,0.061-0.539,0.183-0.883l12.942-39.833
			c0.122-0.343,0.183-0.687,0.183-1.031c0-0.932-0.346-1.399-1.038-1.399c-1.099,0-2.28,0.638-3.541,1.914L73.123,94.405
			c-1.303,1.325-2.646,1.988-4.029,1.988H52.61c-1.384,0-2.3-0.663-2.747-1.988l-7.082-20.984c-0.448-1.276-1.221-1.914-2.32-1.914
			c-1.099,0-1.914,0.81-2.442,2.43l-12.942,39.833c-0.53,1.669-1.486,2.503-2.87,2.503h-8.241c-0.937,0-1.404-0.54-1.404-1.62
			c0-0.244,0.041-0.539,0.122-0.883l12.942-39.833c0.122-0.294,0.183-0.589,0.183-0.884c0-0.834-0.468-1.349-1.404-1.546
			c-0.937-0.196-1.404-0.736-1.404-1.62c0-0.294,0.04-0.589,0.122-0.883c0.528-1.668,1.485-2.503,2.869-2.503h24.786
			c1.383,0,2.279,0.639,2.687,1.915l7.143,21.057c0.406,1.277,1.038,1.915,1.893,1.915c0.813,0,1.852-0.638,3.113-1.915
			L86.37,68.415c1.302-1.276,2.645-1.915,4.029-1.915H111.034 M111.034,61.5H90.399c-1.878,0-4.709,0.58-7.529,3.344l-0.031,0.03
			l-0.03,0.03L64.02,83.966l-5.809-17.124c-1.076-3.296-3.919-5.342-7.433-5.342H25.993c-3.592,0-6.447,2.241-7.636,5.994
			l-0.026,0.083l-0.023,0.084c-0.203,0.728-0.306,1.476-0.306,2.225c0,1.975,0.769,3.688,2.095,4.888l-12.168,37.45l-0.064,0.196
			l-0.047,0.201c-0.172,0.729-0.255,1.394-0.255,2.03c0,3.836,2.693,6.62,6.404,6.62h8.241c3.59,0,6.445-2.239,7.635-5.99
			l10.688-32.893l4.595,13.615c1.139,3.375,3.937,5.389,7.484,5.389h16.483c1.902,0,4.764-0.604,7.594-3.482l12.717-12.856
			l-8.811,27.117c-0.299,0.865-0.445,1.677-0.445,2.48c0,3.836,2.693,6.62,6.404,6.62h8.242c3.591,0,6.445-2.24,7.635-5.991
			l14.562-44.675c0.3-0.866,0.446-1.68,0.446-2.486C117.438,64.284,114.745,61.5,111.034,61.5L111.034,61.5z"/>
	</g>
</g>
</svg>
